Coordinates
version=1
nRows=13
nColumns=40
inDegrees=yes

Units are S.I. units (second, meters, Newtons, ...)
Angles are in degrees.

endheader
time	pelvis_tilt	pelvis_list	pelvis_rotation	pelvis_tx	pelvis_ty	pelvis_tz	hip_flexion_r	hip_adduction_r	hip_rotation_r	knee_angle_r	knee_angle_r_beta	ankle_angle_r	subtalar_angle_r	mtp_angle_r	hip_flexion_l	hip_adduction_l	hip_rotation_l	knee_angle_l	knee_angle_l_beta	ankle_angle_l	subtalar_angle_l	mtp_angle_l	lumbar_extension	lumbar_bending	lumbar_rotation	arm_flex_r	arm_add_r	arm_rot_r	elbow_flex_r	pro_sup_r	wrist_flex_r	wrist_dev_r	arm_flex_l	arm_add_l	arm_rot_l	elbow_flex_l	pro_sup_l	wrist_flex_l	wrist_dev_l
     26.41778571	     -7.45940406	     -4.24635413	      6.40238154	      1.06091220	      0.91953697	      0.47785729	      6.94817187	      1.43813024	    -14.73188569	     14.87188471	     14.87188471	     16.52777860	     -2.12583390	     -3.67126022	     32.95897649	     -6.90360282	      2.05682648	     21.01592890	     21.01592890	      7.08374025	     -7.41319962	      5.24708019	     -9.81055137	      1.94497303	      2.34962273	     24.79656429	    -16.41024395	      5.73688798	     91.02750668	     44.47019240	      0.00000000	      0.00000000	      5.22285688	    -11.43873131	    -12.45566604	     30.82091147	     46.45431812	      0.00000000	      0.00000000
     26.43057143	     -7.53850897	     -4.36182349	      6.31914729	      1.06240078	      0.91845724	      0.47634328	      6.56326461	      1.49953085	    -14.63857597	     14.86611789	     14.86611789	     16.85538118	     -2.05800993	     -3.68961709	     32.47718682	     -6.95950703	      1.23958196	     20.96152444	     20.96152444	      6.66506309	     -7.54048214	      5.07636686	     -9.58374906	      1.91934161	      2.56857227	     24.20103031	    -15.90969372	      6.14673150	     90.69886626	     44.46946396	      0.00000000	      0.00000000	      5.23464905	    -11.46298795	    -12.45446008	     30.84350174	     46.45191723	      0.00000000	      0.00000000
     26.44335714	     -7.50341335	     -4.51505849	      6.23438390	      1.06408840	      0.91755002	      0.47471212	      6.07531173	      1.58932118	    -14.61421272	     14.93983958	     14.93983958	     17.43743723	     -1.76407780	     -2.91615292	     31.81271009	     -7.15614675	      0.21056627	     20.77565115	     20.77565115	      5.09252564	     -7.65001738	      1.83917453	     -9.41774527	      1.96166976	      2.31457667	     24.27988646	    -15.33275568	      7.27488831	     88.84390490	     44.52901855	      0.00000000	      0.00000000	      5.00919918	    -11.64123430	    -12.41505872	     30.77684495	     46.42217193	      0.00000000	      0.00000000
     26.45614286	     -7.50461664	     -4.55403727	      6.19054618	      1.06570683	      0.91677626	      0.47280190	      5.66371156	      1.52730793	    -14.50994804	     15.07479481	     15.07479481	     17.69457297	     -1.80064542	     -2.94575247	     31.37403885	     -7.14119249	     -0.32568595	     21.05479430	     21.05479430	      4.71054276	     -7.99109706	      1.81894790	     -9.30738913	      1.87119149	      2.41793116	     23.42234972	    -14.94660822	      7.64725469	     88.53959005	     44.52594146	      0.00000000	      0.00000000	      5.05853351	    -11.67971817	    -12.43076701	     30.84217749	     46.42377663	      0.00000000	      0.00000000
     26.46892857	     -7.46430795	     -4.56049870	      6.20234322	      1.06734718	      0.91620662	      0.47066771	      5.25906812	      1.40400021	    -14.42228380	     15.32123767	     15.32123767	     17.92587349	     -1.87296479	     -2.93632990	     30.97342060	     -7.09014032	     -0.73681717	     21.45081421	     21.45081421	      4.40338574	     -8.26891855	      1.63136525	     -9.25822871	      1.73664392	      2.51255600	     22.51532452	    -14.69886937	      8.02644347	     87.95317468	     44.53188027	      0.00000000	      0.00000000	      5.17740921	    -11.74028265	    -12.44114755	     30.91295121	     46.42554252	      0.00000000	      0.00000000
     26.48171429	     -7.39175503	     -4.54636939	      6.23195132	      1.06898474	      0.91583593	      0.46832154	      4.91532125	      1.21625675	    -14.35587205	     15.75385114	     15.75385114	     18.14861498	     -2.01235916	     -2.90091723	     30.62757557	     -7.01924889	     -1.00839838	     21.96751360	     21.96751360	      4.22306902	     -8.52211469	      1.27908112	     -9.24618752	      1.60084249	      2.61133180	     21.57427622	    -14.55932925	      8.42841678	     87.02025310	     44.54874157	      0.00000000	      0.00000000	      5.38042946	    -11.79432978	    -12.43795145	     30.98094363	     46.42627232	      0.00000000	      0.00000000
     26.49450000	     -7.25097854	     -4.55481872	      6.31428204	      1.07058525	      0.91586479	      0.46576586	      4.55272583	      1.03340499	    -14.32746990	     16.27032524	     16.27032524	     18.21282837	     -2.16651261	     -2.89591392	     30.24713527	     -6.94125537	     -1.04327766	     22.48882906	     22.48882906	      4.22160459	     -8.69290823	      1.02961110	     -9.33995683	      1.51164613	      2.54590209	     20.47548127	    -14.40510237	      8.78663203	     86.20381068	     44.56097598	      0.00000000	      0.00000000	      5.53828387	    -11.82762281	    -12.43051913	     31.01590622	     46.42655594	      0.00000000	      0.00000000
     26.50728571	     -7.26863676	     -4.48813089	      6.30470325	      1.07186938	      0.91565663	      0.46307238	      4.80104069	      0.62009514	    -14.18888904	     17.62694642	     17.62694642	     18.48104864	     -2.57794191	     -2.88824923	     30.17374045	     -6.79619787	     -1.09495948	     23.23262141	     23.23262141	      4.31539339	     -8.94025376	      0.37335497	     -9.20455530	      1.32937140	      2.89521352	     19.76563337	    -14.59797498	      9.29184844	     83.61817077	     44.63284029	      0.00000000	      0.00000000	      6.04384020	    -11.77804590	    -12.34660767	     31.01404479	     46.41773597	      0.00000000	      0.00000000
     26.52007143	     -7.03070992	     -4.55274373	      6.46269010	      1.07351468	      0.91634156	      0.46009380	      4.46826039	      0.44258692	    -14.24981038	     18.36532070	     18.36532070	     18.32825980	     -2.79947798	     -2.90173327	     29.67324793	     -6.70792155	     -0.83612560	     23.63221418	     23.63221418	      4.67077733	     -9.03814889	      0.13642980	     -9.42969776	      1.34973770	      2.62737024	     18.53245450	    -14.42952101	      9.63090197	     82.75764692	     44.64620938	      0.00000000	      0.00000000	      6.15148087	    -11.84313625	    -12.33777319	     30.99993539	     46.41728281	      0.00000000	      0.00000000
     26.53285714	     -7.07655818	     -4.42539871	      6.41913903	      1.07457698	      0.91647942	      0.45707667	      5.16653480	     -0.17722894	    -14.04892051	     20.47782359	     20.47782359	     18.38951417	     -3.46566972	     -3.28655385	     29.58702685	     -6.45468517	     -0.76974643	     24.27531152	     24.27531152	      5.09935467	     -9.27970871	     -0.09833773	     -9.26470818	      1.11074888	      2.96449956	     17.87040849	    -14.60296263	     10.10925955	     79.49199471	     44.74139077	      0.00000000	      0.00000000	      6.71745733	    -11.78195031	    -12.21854678	     30.96322188	     46.40413267	      0.00000000	      0.00000000
     26.54564286	     -6.95520518	     -4.43225872	      6.46978907	      1.07591622	      0.91730611	      0.45394262	      5.49274851	     -0.56424364	    -13.91982868	     22.15156088	     22.15156088	     17.93353056	     -4.19006096	     -3.99722896	     29.20325653	     -6.28359142	     -0.50700211	     24.67759340	     24.67759340	      5.81912899	     -9.41977925	      0.32612874	     -9.21928929	      1.07733248	      2.15542287	     18.13314097	    -13.80489065	     11.11368784	     74.48274253	     44.89175370	      0.00000000	      0.00000000	      6.66637154	    -12.04594590	    -12.03758478	     30.48381471	     46.36352015	      0.00000000	      0.00000000
     26.55842857	     -6.84583112	     -4.39651860	      6.42531350	      1.07713715	      0.91804604	      0.45082759	      6.16882469	     -1.11285468	    -13.79851762	     24.45689527	     24.45689527	     17.54390996	     -4.82957146	     -4.64241131	     28.77847480	     -6.13010861	     -0.45901722	     25.00561079	     25.00561079	      6.44576867	     -9.43933038	      0.20623131	     -9.32975168	      1.00348540	      2.43433071	     16.91009945	    -14.15336624	     11.50036954	     72.74475732	     44.93446429	      0.00000000	      0.00000000	      7.04308366	    -11.97732208	    -12.05920318	     30.87176041	     46.36885519	      0.00000000	      0.00000000
     26.57121429	     -6.76806820	     -4.41550175	      6.35291632	      1.07830497	      0.91892851	      0.44782815	      6.98457229	     -1.56508171	    -13.48044241	     26.80911490	     26.80911490	     16.30306732	     -6.14239727	     -6.75067268	     28.36069888	     -6.02856164	     -0.38544767	     25.28810550	     25.28810550	      7.25028072	     -9.40005517	      0.78725945	     -9.26480562	      0.95925737	      2.12714224	     16.82443290	    -13.66673932	     12.04619116	     67.97839807	     45.08635322	      0.00000000	      0.00000000	      7.01230144	    -12.11224962	    -11.95300815	     31.14939670	     46.33885385	      0.00000000	      0.00000000
